HIERARCHY
ROOT pelvis
{
  OFFSET 0 100 0
  CHANNELS 6 Xposition Yposition Zposition Zrotation Xrotation Yrotation
  JOINT pelvis_right_femur
  {
    OFFSET -10.78128 -3.44521 -0.5502486
    CHANNELS 3 Zrotation Xrotation Yrotation
    JOINT right_femur_tibia
    {
      OFFSET -0.8047443 -44.0398 -0.1307829
      CHANNELS 3 Zrotation Xrotation Yrotation
      JOINT right_tibia_foot
      {
        OFFSET 3.006224 -47.83518 -5
        CHANNELS 3 Zrotation Xrotation Yrotation
        End Site
        {
          OFFSET 0 -5 15
        }
      }
    }
  }
  JOINT pelvis_left_femur
  {
    OFFSET 10.78128 -3.44521 -0.5502486
    CHANNELS 3 Zrotation Xrotation Yrotation
    JOINT left_femur_tibia
    {
      OFFSET 0.8047443 -44.0398 -0.1307829
      CHANNELS 3 Zrotation Xrotation Yrotation
      JOINT left_tibia_foot
      {
        OFFSET -4.370144 -48.10324 -4.275266
        CHANNELS 3 Zrotation Xrotation Yrotation
        End Site
        {
          OFFSET 0 -5 15
        }
      }
    }
  }
  JOINT pelvis_spine1
  {
    OFFSET 0 6.468898 -3.129235
    CHANNELS 3 Zrotation Xrotation Yrotation
    JOINT spine1
    {
      OFFSET 0 23.15396 4.99043
      CHANNELS 3 Zrotation Xrotation Yrotation
      JOINT spine2
      {
        OFFSET 0 20.79997 -5.064912
        CHANNELS 3 Zrotation Xrotation Yrotation
        JOINT neck
        {
          OFFSET 0 14.38658 9.616178
          CHANNELS 3 Zrotation Xrotation Yrotation
          End Site
          {
            OFFSET 0 20 0
          }
        }
      }
      JOINT right_manubrium
      {
        OFFSET -5.722621 16.35077 3.967754
        CHANNELS 3 Zrotation Xrotation Yrotation
        JOINT right_clavicle
        {
          OFFSET -13.16364 1.694482 -4.693211
          CHANNELS 3 Zrotation Xrotation Yrotation
          JOINT right_humerus
          {
            OFFSET -28.5034 -0.3100689 -2.792744
            CHANNELS 3 Zrotation Xrotation Yrotation
            JOINT right_radius
            {
              OFFSET -25.15693 0.02248979 -1.271978
              CHANNELS 3 Zrotation Xrotation Yrotation
              End Site
              {
                OFFSET -15 0 0
              }
            }
          }
        }
      }
      JOINT left_manubrium
      {
        OFFSET 5.722621 16.35077 3.967754
        CHANNELS 3 Zrotation Xrotation Yrotation
        JOINT left_clavicle
        {
          OFFSET 13.16364 1.694482 -4.693211
          CHANNELS 3 Zrotation Xrotation Yrotation
          JOINT left_humerus
          {
            OFFSET 29.39168 -1.063119 -2.237045
            CHANNELS 3 Zrotation Xrotation Yrotation
            JOINT left_radius
            {
              OFFSET 24.59957 -0.9528479 0.9047498
              CHANNELS 3 Zrotation Xrotation Yrotation
              End Site
              {
                OFFSET 15 -0 -0
              }
            }
          }
        }
      }
    }
  }
}
MOTION
Frames: 15
Frame Time: 0.0416666666667
-1432.627 116.5275 633.3246 4.592432 12.03258 163.5946 7.188816 9.573821 2.73879 -0 22.87779 -0 -5.599021 -12.7709 -5.540554 4.526098 -10.66518 -0.1122786 -0 15.38908 -0 8.894014 1.736504 13.107 2.497483 -5.806396 9.08641 -0.2884584 20.08286 -7.025573 1.424745 16.78785 0.3251178 -1.366147 -15.17304 4.240627 -2.789248 -33.37959 13.34499 91.97839 10.70572 -12.34791 -0 0 34.69511 -26.06597 22.96371 13.28119 1.965277 -24.82656 -10.42421 -89.82426 -1.825381 37.70978 0 0 -8.022715 15.88199 13.43503 -6.82179
-1432.14 116.5014 627.0864 4.693568 11.99398 163.1087 7.188816 9.573821 2.73879 -0 22.87779 -0 -5.599021 -12.7709 -5.540554 4.526098 -10.66518 -0.1122786 -0 15.38908 -0 8.894014 1.736504 13.107 2.497483 -5.806396 9.08641 -0.2884584 20.08286 -7.025573 1.424745 16.78785 0.3251178 -1.366147 -15.17304 4.240627 -2.789248 -33.37959 13.34499 91.97839 10.70572 -12.34791 -0 0 34.69511 -26.06597 22.96371 13.28119 1.965277 -24.82656 -10.42421 -89.82426 -1.825381 37.70978 0 0 -8.022715 15.88199 13.43503 -6.82179
-1431.601 116.4754 620.8525 4.794351 11.95455 162.6229 7.188816 9.573821 2.73879 -0 22.87779 -0 -5.599021 -12.7709 -5.540554 4.526098 -10.66518 -0.1122786 -0 15.38908 -0 8.894014 1.736504 13.107 2.497483 -5.806396 9.08641 -0.2884584 20.08286 -7.025573 1.424745 16.78785 0.3251178 -1.366147 -15.17304 4.240627 -2.789248 -33.37959 13.34499 91.97839 10.70572 -12.34791 -0 0 34.69511 -26.06597 22.96371 13.28119 1.965277 -24.82656 -10.42421 -89.82426 -1.825381 37.70978 0 0 -8.022715 15.88199 13.43503 -6.82179
-1431.01 116.4493 614.6233 4.894775 11.91428 162.1373 7.188816 9.573821 2.73879 -0 22.87779 -0 -5.599021 -12.7709 -5.540554 4.526098 -10.66518 -0.1122786 -0 15.38908 -0 8.894014 1.736504 13.107 2.497483 -5.806396 9.08641 -0.2884584 20.08286 -7.025573 1.424745 16.78785 0.3251178 -1.366147 -15.17304 4.240627 -2.789248 -33.37959 13.34499 91.97839 10.70572 -12.34791 -0 0 34.69511 -26.06597 22.96371 13.28119 1.965277 -24.82656 -10.42421 -89.82426 -1.825381 37.70978 0 0 -8.022715 15.88199 13.43503 -6.82179
-1430.368 116.4232 608.3992 4.99483 11.87318 161.6519 7.188816 9.573821 2.73879 -0 22.87779 -0 -5.599021 -12.7709 -5.540554 4.526098 -10.66518 -0.1122786 -0 15.38908 -0 8.894014 1.736504 13.107 2.497483 -5.806396 9.08641 -0.2884584 20.08286 -7.025573 1.424745 16.78785 0.3251178 -1.366147 -15.17304 4.240627 -2.789248 -33.37959 13.34499 91.97839 10.70572 -12.34791 -0 0 34.69511 -26.06597 22.96371 13.28119 1.965277 -24.82656 -10.42421 -89.82426 -1.825381 37.70978 0 0 -8.022715 15.88199 13.43503 -6.82179
-1429.673 116.3971 602.1807 5.094512 11.83125 161.1665 7.188816 9.573821 2.73879 -0 22.87779 -0 -5.599021 -12.7709 -5.540554 4.526098 -10.66518 -0.1122786 -0 15.38908 -0 8.894014 1.736504 13.107 2.497483 -5.806396 9.08641 -0.2884584 20.08286 -7.025573 1.424745 16.78785 0.3251178 -1.366147 -15.17304 4.240627 -2.789248 -33.37959 13.34499 91.97839 10.70572 -12.34791 -0 0 34.69511 -26.06597 22.96371 13.28119 1.965277 -24.82656 -10.42421 -89.82426 -1.825381 37.70978 0 0 -8.022715 15.88199 13.43503 -6.82179
-1428.927 116.371 595.9681 5.193811 11.7885 160.6813 7.188816 9.573821 2.73879 -0 22.87779 -0 -5.599021 -12.7709 -5.540554 4.526098 -10.66518 -0.1122786 -0 15.38908 -0 8.894014 1.736504 13.107 2.497483 -5.806396 9.08641 -0.2884584 20.08286 -7.025573 1.424745 16.78785 0.3251178 -1.366147 -15.17304 4.240627 -2.789248 -33.37959 13.34499 91.97839 10.70572 -12.34791 -0 0 34.69511 -26.06597 22.96371 13.28119 1.965277 -24.82656 -10.42421 -89.82426 -1.825381 37.70978 0 0 -8.022715 15.88199 13.43503 -6.82179
-1428.129 116.3449 589.762 5.292722 11.74492 160.1963 7.188816 9.573821 2.73879 -0 22.87779 -0 -5.599021 -12.7709 -5.540554 4.526098 -10.66518 -0.1122786 -0 15.38908 -0 8.894014 1.736504 13.107 2.497483 -5.806396 9.08641 -0.2884584 20.08286 -7.025573 1.424745 16.78785 0.3251178 -1.366147 -15.17304 4.240627 -2.789248 -33.37959 13.34499 91.97839 10.70572 -12.34791 -0 0 34.69511 -26.06597 22.96371 13.28119 1.965277 -24.82656 -10.42421 -89.82426 -1.825381 37.70978 0 0 -8.022715 15.88199 13.43503 -6.82179
-1427.28 116.3189 583.5628 5.391236 11.70053 159.7114 7.188816 9.573821 2.73879 -0 22.87779 -0 -5.599021 -12.7709 -5.540554 4.526098 -10.66518 -0.1122786 -0 15.38908 -0 8.894014 1.736504 13.107 2.497483 -5.806396 9.08641 -0.2884584 20.08286 -7.025573 1.424745 16.78785 0.3251178 -1.366147 -15.17304 4.240627 -2.789248 -33.37959 13.34499 91.97839 10.70572 -12.34791 -0 0 34.69511 -26.06597 22.96371 13.28119 1.965277 -24.82656 -10.42421 -89.82426 -1.825381 37.70978 0 0 -8.022715 15.88199 13.43503 -6.82179
-1426.379 116.2928 577.3708 5.489348 11.65532 159.2267 7.188816 9.573821 2.73879 -0 22.87779 -0 -5.599021 -12.7709 -5.540554 4.526098 -10.66518 -0.1122786 -0 15.38908 -0 8.894014 1.736504 13.107 2.497483 -5.806396 9.08641 -0.2884584 20.08286 -7.025573 1.424745 16.78785 0.3251178 -1.366147 -15.17304 4.240627 -2.789248 -33.37959 13.34499 91.97839 10.70572 -12.34791 -0 0 34.69511 -26.06597 22.96371 13.28119 1.965277 -24.82656 -10.42421 -89.82426 -1.825381 37.70978 0 0 -8.022715 15.88199 13.43503 -6.82179
-1425.426 116.2667 571.1866 5.587049 11.6093 158.7422 7.188816 9.573821 2.73879 -0 22.87779 -0 -5.599021 -12.7709 -5.540554 4.526098 -10.66518 -0.1122786 -0 15.38908 -0 8.894014 1.736504 13.107 2.497483 -5.806396 9.08641 -0.2884584 20.08286 -7.025573 1.424745 16.78785 0.3251178 -1.366147 -15.17304 4.240627 -2.789248 -33.37959 13.34499 91.97839 10.70572 -12.34791 -0 0 34.69511 -26.06597 22.96371 13.28119 1.965277 -24.82656 -10.42421 -89.82426 -1.825381 37.70978 0 0 -8.022715 15.88199 13.43503 -6.82179
-1424.422 116.2406 565.0105 5.684334 11.56247 158.2578 7.188816 9.573821 2.73879 -0 22.87779 -0 -5.599021 -12.7709 -5.540554 4.526098 -10.66518 -0.1122786 -0 15.38908 -0 8.894014 1.736504 13.107 2.497483 -5.806396 9.08641 -0.2884584 20.08286 -7.025573 1.424745 16.78785 0.3251178 -1.366147 -15.17304 4.240627 -2.789248 -33.37959 13.34499 91.97839 10.70572 -12.34791 -0 0 34.69511 -26.06597 22.96371 13.28119 1.965277 -24.82656 -10.42421 -89.82426 -1.825381 37.70978 0 0 -8.022715 15.88199 13.43503 -6.82179
-1423.367 116.2145 558.843 5.781195 11.51484 157.7736 7.188816 9.573821 2.73879 -0 22.87779 -0 -5.599021 -12.7709 -5.540554 4.526098 -10.66518 -0.1122786 -0 15.38908 -0 8.894014 1.736504 13.107 2.497483 -5.806396 9.08641 -0.2884584 20.08286 -7.025573 1.424745 16.78785 0.3251178 -1.366147 -15.17304 4.240627 -2.789248 -33.37959 13.34499 91.97839 10.70572 -12.34791 -0 0 34.69511 -26.06597 22.96371 13.28119 1.965277 -24.82656 -10.42421 -89.82426 -1.825381 37.70978 0 0 -8.022715 15.88199 13.43503 -6.82179
-1422.26 116.1884 552.6844 5.877625 11.46641 157.2895 7.188816 9.573821 2.73879 -0 22.87779 -0 -5.599021 -12.7709 -5.540554 4.526098 -10.66518 -0.1122786 -0 15.38908 -0 8.894014 1.736504 13.107 2.497483 -5.806396 9.08641 -0.2884584 20.08286 -7.025573 1.424745 16.78785 0.3251178 -1.366147 -15.17304 4.240627 -2.789248 -33.37959 13.34499 91.97839 10.70572 -12.34791 -0 0 34.69511 -26.06597 22.96371 13.28119 1.965277 -24.82656 -10.42421 -89.82426 -1.825381 37.70978 0 0 -8.022715 15.88199 13.43503 -6.82179
-1421.102 116.1623 546.5353 5.973617 11.41719 156.8056 7.188816 9.573821 2.73879 -0 22.87779 -0 -5.599021 -12.7709 -5.540554 4.526098 -10.66518 -0.1122786 -0 15.38908 -0 8.894014 1.736504 13.107 2.497483 -5.806396 9.08641 -0.2884584 20.08286 -7.025573 1.424745 16.78785 0.3251178 -1.366147 -15.17304 4.240627 -2.789248 -33.37959 13.34499 91.97839 10.70572 -12.34791 -0 0 34.69511 -26.06597 22.96371 13.28119 1.965277 -24.82656 -10.42421 -89.82426 -1.825381 37.70978 0 0 -8.022715 15.88199 13.43503 -6.82179
